<?xml version="1.0" encoding="UTF-8" standalone="no"?>
<!-- Created with Inkscape (http://www.inkscape.org/) -->

<svg
   xmlns:dc="http://purl.org/dc/elements/1.1/"
   xmlns:cc="http://creativecommons.org/ns#"
   xmlns:rdf="http://www.w3.org/1999/02/22-rdf-syntax-ns#"
   xmlns:svg="http://www.w3.org/2000/svg"
   xmlns="http://www.w3.org/2000/svg"
   xmlns:sodipodi="http://sodipodi.sourceforge.net/DTD/sodipodi-0.dtd"
   xmlns:inkscape="http://www.inkscape.org/namespaces/inkscape"
   width="50"
   height="50"
   viewBox="0 0 13.229167 13.229167"
   version="1.1"
   id="svg951"
   inkscape:version="0.92.4 5da689c313, 2019-01-14"
   sodipodi:docname="ZenJiraSync.svg"
   inkscape:export-filename="/home/tiago/dev/ZenJiraSync/changes/images/ZenJiraSync-logo-small.png"
   inkscape:export-xdpi="96"
   inkscape:export-ydpi="96">
  <defs
     id="defs945" />
  <sodipodi:namedview
     id="base"
     pagecolor="#ffffff"
     bordercolor="#666666"
     borderopacity="1.0"
     inkscape:pageopacity="0.0"
     inkscape:pageshadow="2"
     inkscape:zoom="7.9195959"
     inkscape:cx="26.251322"
     inkscape:cy="30.325482"
     inkscape:document-units="px"
     inkscape:current-layer="layer1"
     showgrid="true"
     units="px"
     inkscape:window-width="1920"
     inkscape:window-height="1011"
     inkscape:window-x="0"
     inkscape:window-y="27"
     inkscape:window-maximized="1">
    <inkscape:grid
       type="xygrid"
       id="grid1496"
       spacingx="0.26458333" />
  </sodipodi:namedview>
  <metadata
     id="metadata948">
    <rdf:RDF>
      <cc:Work
         rdf:about="">
        <dc:format>image/svg+xml</dc:format>
        <dc:type
           rdf:resource="http://purl.org/dc/dcmitype/StillImage" />
        <dc:title />
      </cc:Work>
    </rdf:RDF>
  </metadata>
  <g
     inkscape:label="Layer 1"
     inkscape:groupmode="layer"
     id="layer1"
     transform="translate(0,-283.77083)">
    <path
       style="opacity:1;fill:#ff0000;fill-opacity:0.98122068;fill-rule:nonzero;stroke:none;stroke-width:3;stroke-linecap:round;stroke-linejoin:round;stroke-miterlimit:4;stroke-dasharray:none;stroke-opacity:1"
       d="M 25,0 A 25,25 0 0 0 0,25 25,25 0 0 0 25,50 25,25 0 0 0 50,25 25,25 0 0 0 25,0 Z m -9.623047,5 h 17.505859 1.740235 2.228515 v 29.195312 c 0,3.7835 -0.674387,6.530653 -2.023437,8.240235 C 33.492172,44.145128 31.336431,45 28.363281,45 h -1.511719 v -3.574219 h 1.236329 c 1.755075,0 2.994477,-0.525199 3.714843,-1.576172 C 32.446132,38.91093 32.784771,37.268915 32.853516,35 H 15 V 31.90625 L 30.488281,8.4160156 H 15.376953 Z m 17.505859,5.732422 -13.748046,20.851562 h 13.748046 z"
       transform="matrix(0.26458334,0,0,0.26458334,0,283.77083)"
       id="path821"
       inkscape:connector-curvature="0" />
  </g>
</svg>
